<svg width="1168" height="1758" fill="none" xmlns="http://www.w3.org/2000/svg"><path d="M78.5 1C78.667 41.619 94 129.615 154 156.648c75 33.792 128.5 34.304 204.5 33.28 60.8-.819 379.167-3.769 524-3.428 38.5.091 105.547 13.727 151.5 55 54 48.5 55.16 93.703 57.5 134 2 34.406 0 210.686 0 266.5 0 127-80 209-228.5 210l-570 6.93c-128 0-211 51.986-217.5 183.57V1353c-5.5 109 79.5 184.67 169 184.67 106.5 0 171.5 1.7 205.5 0 71 0 135 49.33 139 131.83v88" stroke="url(#paint0_linear)" stroke-width="150"/><path d="M78.5 1C78.667 41.619 94 129.615 154 156.648c75 33.792 128.5 34.304 204.5 33.28 60.8-.819 379.167-3.769 524-3.428 38.5.091 105.547 13.727 151.5 55 54 48.5 55.16 93.703 57.5 134 2 34.406 0 210.686 0 266.5 0 127-80 209-228.5 210l-570 6.93c-128 0-211 51.986-217.5 183.57V1353c-5.5 109 79.5 184.67 169 184.67 106.5 0 171.5 1.7 205.5 0 71 0 135 49.33 139 131.83v69" stroke="url(#paint1_linear)" stroke-width="2" stroke-dasharray="10 15"/><path d="M1113.6 864.602c1.78-3.28-.24-7.299-2.55-10.227-2.31-2.929-5.13-5.953-5.07-9.698.09-5.357 5.77-8.518 10.31-11.358a50.199 50.199 0 009.26-7.447 13.294 13.294 0 002.84-3.81c.95-2.095.92-4.477.86-6.775-.2-7.643-.58-15.279-1.13-22.907" stroke="#3F3D56" stroke-width="4" stroke-miterlimit="10"/><path d="M1136.75 791.958a8.28 8.28 0 00-1.21-3.957 8.293 8.293 0 00-2.96-2.889l-1.86 3.702.05-4.476a8.315 8.315 0 00-5.16.152 8.334 8.334 0 00-5.51 8.134 8.33 8.33 0 0015.27 4.314 8.302 8.302 0 001.38-4.98zm-14.88 56.553a8.315 8.315 0 01-4.06 3.812 8.316 8.316 0 01-10.11-2.783 8.256 8.256 0 01-1.54-5.351 8.31 8.31 0 012.17-5.128 8.313 8.313 0 014.91-2.615 8.354 8.354 0 015.47 1.067c1.64.972 2.9 2.48 3.57 4.271l-5.22 4.244 5.74-1.333c0 1.328-.32 2.637-.93 3.816zm-4.16-16.222a8.318 8.318 0 01-7.95-4.791 8.29 8.29 0 01-.78-3.168 8.168 8.168 0 01.72-3.804 8.419 8.419 0 012.16-2.91 8.443 8.443 0 013.19-1.722l-.04 3.447 1.89-3.744c1.1-.054 2.19.11 3.22.481a8.296 8.296 0 014.73 4.31c.47.994.73 2.071.78 3.168a8.1 8.1 0 01-.36 2.851 8.333 8.333 0 01-7.56 5.882zm20.29-13.495a8.306 8.306 0 01-3.72-.73 8.386 8.386 0 01-3.02-2.309 8.393 8.393 0 01-1.68-3.408c-.29-1.25-.28-2.55.01-3.799a8.5 8.5 0 011.69-3.401 8.375 8.375 0 013.03-2.296 8.321 8.321 0 017.39.304l-1.48 4.048 3.04-2.917a8.312 8.312 0 012.49 4.168 8.28 8.28 0 01-.25 4.851 8.333 8.333 0 01-2.91 3.887 8.34 8.34 0 01-4.59 1.602z" fill="#57B894"/><path opacity=".1" d="M1135.62 794.184c-1.92.214-3.8.816-5.73.935-1.94.119-4.06-.346-5.28-1.852-.66-.809-.99-1.833-1.55-2.714a5.932 5.932 0 00-2.1-1.983 8.23 8.23 0 00-.82 3.374 8.33 8.33 0 002.58 6.282 8.308 8.308 0 002.96 1.819 8.3 8.3 0 003.44.455 8.355 8.355 0 003.33-.987 8.352 8.352 0 004.12-5.394c-.31.012-.63.035-.95.065zm2.38 24.609a8.335 8.335 0 01-4.14-.897 8.332 8.332 0 01-3.18-2.818 8.361 8.361 0 01-1.38-4.014 8.344 8.344 0 01.76-4.176 5.987 5.987 0 011.68 1.684c.6.899.96 1.935 1.66 2.762 1.3 1.53 3.52 2.03 5.53 1.935 2.01-.095 3.97-.661 5.95-.845.28 0 .57-.048.85-.054a8.34 8.34 0 01-7.73 6.423zm-20.29 13.496a8.318 8.318 0 01-7.95-4.791 8.29 8.29 0 01-.78-3.168 8.168 8.168 0 01.72-3.804c.69.451 1.3 1.026 1.78 1.696.65.917 1.06 1.971 1.79 2.816 1.41 1.572 3.78 2.125 5.91 2.072 2.14-.054 4.06-.554 6.11-.709a8.305 8.305 0 01-2.86 4.148 8.278 8.278 0 01-4.72 1.74zm4.16 16.222c-.44 1-1.08 1.902-1.88 2.654a8.373 8.373 0 01-2.75 1.731 8.373 8.373 0 01-3.21.545 8.318 8.318 0 01-3.17-.724c-1-.448-1.9-1.088-2.66-1.884a8.373 8.373 0 01-1.73-2.756 8.366 8.366 0 01-.54-3.209c.03-1.095.28-2.173.72-3.173a8.465 8.465 0 011.84 1.631c.79.97 1.31 2.065 2.23 2.976 1.7 1.679 4.46 2.381 6.92 2.435 1.41.006 2.83-.07 4.23-.226z" fill="#000"/><path d="M1101 860.828s6.59-.203 8.58-1.62c1.99-1.417 10.12-3.107 10.63-.833.52 2.274 9.9 11.311 2.47 11.346-7.44.036-17.29-1.161-19.28-2.381-1.98-1.22-2.4-6.512-2.4-6.512z" fill="#656380"/><path opacity=".2" d="M1122.81 868.93c-7.45.059-17.29-1.161-19.28-2.382-1.51-.916-2.11-4.22-2.31-5.744h-.22s.42 5.316 2.38 6.548c1.96 1.232 11.83 2.429 19.27 2.381 2.15 0 2.89-.78 2.85-1.917-.28.673-1.09 1.102-2.69 1.114z" fill="#000"/><path d="M66.917 1565.9c1.547-2.6-.206-5.79-2.207-8.11-2-2.32-4.445-4.72-4.394-7.69.078-4.24 5.002-6.75 8.937-9a42.72 42.72 0 008.024-5.91 10.617 10.617 0 002.465-3.02c.815-1.66.794-3.54.743-5.37-.172-6.06-.5-12.11-.985-18.16" stroke="#3F3D56" stroke-width="4" stroke-miterlimit="10"/><path d="M86.983 1508.31a6.225 6.225 0 00-1.046-3.14c-.63-.95-1.513-1.73-2.564-2.29l-1.62 2.94.052-3.55a7.835 7.835 0 00-4.474.12c-1.44.47-2.679 1.35-3.537 2.51a6.216 6.216 0 00-1.239 3.94c.053 1.4.59 2.74 1.535 3.84.944 1.11 2.246 1.9 3.718 2.29 1.472.38 3.038.32 4.473-.17 1.434-.49 2.662-1.38 3.507-2.54.846-1.17 1.264-2.55 1.195-3.95zm-12.893 44.83c-.759 1.35-2 2.41-3.517 3.02a7.842 7.842 0 01-4.812.32c-1.596-.4-2.994-1.29-3.957-2.52-.964-1.23-1.436-2.73-1.336-4.24.1-1.52.764-2.95 1.882-4.07 1.118-1.12 2.622-1.85 4.26-2.07 1.637-.23 3.31.07 4.735.84 1.426.77 2.519 1.97 3.096 3.39l-4.523 3.36 4.977-1.05a6.088 6.088 0 01-.805 3.02zm-3.61-12.86c-.95.04-1.9-.09-2.794-.38a7.4 7.4 0 01-2.421-1.33 6.73 6.73 0 01-1.676-2.09 6.156 6.156 0 01-.674-2.51 6.025 6.025 0 01.624-3.01 6.641 6.641 0 011.876-2.31 7.494 7.494 0 012.765-1.37l-.036 2.74 1.635-2.97c.95-.04 1.9.09 2.795.38a7.4 7.4 0 012.42 1.33 6.73 6.73 0 011.676 2.09c.404.78.633 1.64.674 2.51.043.76-.062 1.53-.31 2.26-.435 1.3-1.298 2.44-2.47 3.28a7.623 7.623 0 01-4.083 1.38zm17.59-10.7a7.726 7.726 0 01-3.23-.58 7.045 7.045 0 01-2.613-1.83 6.365 6.365 0 01-1.455-2.7 6.054 6.054 0 01.007-3.01 6.46 6.46 0 011.468-2.7 7.31 7.31 0 012.622-1.82 7.892 7.892 0 013.233-.56c1.11.04 2.196.32 3.171.81l-1.279 3.2 2.63-2.31c1.064.88 1.816 2.03 2.162 3.31.347 1.27.27 2.61-.218 3.84-.488 1.24-1.367 2.31-2.524 3.08a7.588 7.588 0 01-3.973 1.27z" fill="#57B894"/><path opacity=".1" d="M86.008 1510.07c-1.666.17-3.295.65-4.971.74-1.676.1-3.517-.27-4.575-1.46-.572-.65-.86-1.46-1.34-2.16a5.04 5.04 0 00-1.82-1.57 6.194 6.194 0 00-.715 2.68c-.03.92.154 1.85.54 2.71a6.69 6.69 0 001.697 2.27 7.346 7.346 0 002.563 1.44c.955.31 1.97.43 2.982.36a7.73 7.73 0 002.884-.78 7.008 7.008 0 002.285-1.79 6.433 6.433 0 001.29-2.49c-.273.01-.547.03-.82.05zm2.062 19.51a7.76 7.76 0 01-3.594-.71 7.011 7.011 0 01-2.752-2.23 6.298 6.298 0 01-1.2-3.18 6.186 6.186 0 01.662-3.32c.577.36 1.073.81 1.46 1.34.515.71.825 1.53 1.433 2.19 1.124 1.21 3.053 1.61 4.796 1.53 1.743-.07 3.435-.52 5.157-.67.242 0 .49-.03.732-.04-.358 1.4-1.206 2.65-2.414 3.57a7.557 7.557 0 01-4.28 1.52zm-17.59 10.7c-.95.04-1.9-.09-2.794-.38a7.4 7.4 0 01-2.421-1.33 6.73 6.73 0 01-1.676-2.09 6.156 6.156 0 01-.674-2.51 6.025 6.025 0 01.624-3.01c.602.35 1.126.81 1.547 1.34.563.73.913 1.56 1.547 2.23 1.223 1.25 3.275 1.69 5.126 1.65 1.852-.05 3.517-.44 5.296-.57-.435 1.31-1.301 2.46-2.478 3.29a7.584 7.584 0 01-4.096 1.38zm3.61 12.86a6.744 6.744 0 01-1.632 2.11 7.47 7.47 0 01-2.387 1.37c-.887.31-1.831.45-2.78.43a7.793 7.793 0 01-2.749-.57 7.382 7.382 0 01-2.299-1.5 6.543 6.543 0 01-1.5-2.18 6.131 6.131 0 01-.472-2.55c.027-.86.24-1.72.628-2.51.595.36 1.13.79 1.588 1.29.686.77 1.14 1.64 1.934 2.36 1.48 1.33 3.868 1.89 5.998 1.93a32.15 32.15 0 003.671-.18z" fill="#000"/><path d="M56 1562.91s5.714-.16 7.436-1.29c1.723-1.12 8.767-2.46 9.216-.66.448 1.8 8.58 8.97 2.135 9-6.447.02-14.986-.92-16.704-1.89-1.717-.97-2.083-5.16-2.083-5.16z" fill="#656380"/><path opacity=".2" d="M74.9 1569.33c-6.451.05-14.986-.92-16.703-1.89-1.31-.73-1.83-3.35-2.006-4.55H56s.361 4.21 2.063 5.19c1.701.97 10.252 1.92 16.703 1.89 1.861 0 2.501-.62 2.47-1.52-.242.53-.949.87-2.336.88z" fill="#000"/><circle cx="1094" cy="498" r="17" fill="#13F1FC" fill-opacity=".1"/><g filter="url(#filter0_d)"><circle cx="1093.5" cy="498.5" r="8.5" fill="#13F1FC"/></g><circle cx="75" cy="1186" r="17" fill="#13F1FC" fill-opacity=".1"/><g filter="url(#filter1_d)"><circle cx="75.5" cy="1186.5" r="8.5" fill="#13F1FC"/></g><path fill-rule="evenodd" clip-rule="evenodd" d="M591.818 1675h-5.922v22.7h5.922V1675zm-2.961 38l10.857-15.3H578l10.857 15.3z" fill="#F2F3F3"/><defs><linearGradient id="paint0_linear" x1="586.052" y1="1" x2="586.052" y2="1707.5" gradientUnits="userSpaceOnUse"><stop stop-color="#fff"/><stop offset=".541" stop-color="#E6E8EC" stop-opacity=".1"/><stop offset="1" stop-color="#fff"/></linearGradient><linearGradient id="paint1_linear" x1="586.052" y1="1" x2="586.052" y2="1707.5" gradientUnits="userSpaceOnUse"><stop stop-color="#fff"/><stop offset=".21" stop-color="#E6E8EC"/><stop offset=".834" stop-color="#E6E8EC"/><stop offset="1" stop-color="#fff"/></linearGradient><filter id="filter0_d" x="1075" y="484" width="37" height="37" filterUnits="userSpaceOnUse" color-interpolation-filters="sRGB"><feFlood flood-opacity="0" result="BackgroundImageFix"/><feColorMatrix in="SourceAlpha" values="0 0 0 0 0 0 0 0 0 0 0 0 0 0 0 0 0 0 127 0" result="hardAlpha"/><feOffset dy="4"/><feGaussianBlur stdDeviation="5"/><feColorMatrix values="0 0 0 0 0.0745098 0 0 0 0 0.945098 0 0 0 0 0.988235 0 0 0 0.7 0"/><feBlend in2="BackgroundImageFix" result="effect1_dropShadow"/><feBlend in="SourceGraphic" in2="effect1_dropShadow" result="shape"/></filter><filter id="filter1_d" x="57" y="1172" width="37" height="37" filterUnits="userSpaceOnUse" color-interpolation-filters="sRGB"><feFlood flood-opacity="0" result="BackgroundImageFix"/><feColorMatrix in="SourceAlpha" values="0 0 0 0 0 0 0 0 0 0 0 0 0 0 0 0 0 0 127 0" result="hardAlpha"/><feOffset dy="4"/><feGaussianBlur stdDeviation="5"/><feColorMatrix values="0 0 0 0 0.0745098 0 0 0 0 0.945098 0 0 0 0 0.988235 0 0 0 0.7 0"/><feBlend in2="BackgroundImageFix" result="effect1_dropShadow"/><feBlend in="SourceGraphic" in2="effect1_dropShadow" result="shape"/></filter></defs></svg>