<svg width="19" height="22" fill="none" xmlns="http://www.w3.org/2000/svg"><path d="M3.219 8.103v5.437c0 .375-.125.688-.375.938s-.563.374-.938.374-.703-.125-.984-.375A1.202 1.202 0 01.5 13.54V8.103c0-.344.14-.641.422-.891.281-.25.594-.375.937-.375.375 0 .688.125.938.375.281.25.422.547.422.89zm.468 7.359c0 .406.141.75.422 1.031.282.25.61.375.985.375h.937v2.86c0 .562.219.937.656 1.124.438.22.86.22 1.266 0 .438-.218.656-.593.656-1.125v-2.859h1.782v2.86c0 .562.203.937.609 1.124.437.22.875.22 1.312 0 .438-.187.657-.562.657-1.125v-2.859h.937c.375 0 .703-.125.985-.375.28-.281.421-.625.421-1.031v-8.39H3.687v8.39zm11.625-8.86H3.641c0-.968.265-1.859.796-2.671a5.816 5.816 0 012.204-1.97L5.75.322c-.063-.125-.047-.203.047-.234C5.922.024 6 .04 6.03.134l.938 1.64a6.433 6.433 0 012.53-.515c.907 0 1.75.172 2.532.515l.938-1.64c.03-.094.093-.11.187-.047.125.031.156.11.094.234l-.89 1.64a5.463 5.463 0 012.156 1.97c.53.812.796 1.703.796 2.672zM7.344 4.025a.45.45 0 00-.14-.328.445.445 0 00-.376-.187c-.125 0-.234.062-.328.187a.45.45 0 000 .657.45.45 0 00.328.14.507.507 0 00.375-.14.45.45 0 00.14-.329zm5.297 0a.45.45 0 00-.141-.328c-.094-.125-.203-.187-.328-.187s-.25.062-.375.187a.45.45 0 000 .657c.125.093.25.14.375.14a.45.45 0 00.328-.14.45.45 0 00.14-.329zm4.453 2.813c-.344 0-.657.125-.938.375a1.27 1.27 0 00-.375.937v5.391c0 .375.125.688.375.938.281.25.594.374.938.374.375 0 .703-.125.984-.375s.422-.562.422-.937V8.103c0-.344-.14-.641-.422-.891a1.436 1.436 0 00-.984-.375z" fill="#fff"/></svg>