<svg width="18" height="11" fill="none" xmlns="http://www.w3.org/2000/svg"><path d="M10.555 4.524c.054.31.082.602.082.875 0 1.003-.21 1.896-.63 2.68A4.573 4.573 0 018.23 9.884c-.765.437-1.64.656-2.625.656a5.212 5.212 0 01-2.652-.71A5.35 5.35 0 011.04 7.914 5.223 5.223 0 01.355 5.29c0-.948.228-1.823.684-2.625A5.35 5.35 0 012.953.751 5.213 5.213 0 015.605.04c1.368 0 2.534.456 3.5 1.367L7.684 2.774c-.547-.528-1.24-.793-2.079-.793-.583 0-1.13.146-1.64.438a3.239 3.239 0 00-1.176 1.203 3.304 3.304 0 00-.437 1.668c0 .602.145 1.158.437 1.668.292.51.684.911 1.176 1.203.51.292 1.057.438 1.64.438.638 0 1.194-.137 1.668-.41.383-.22.693-.53.93-.93.2-.31.328-.61.383-.903h-2.98V4.524h4.949zm5.058.192V3.185h-1.531v1.53h-1.504v1.532h1.504v1.531h1.531v-1.53h1.532V4.715h-1.532z" fill="#BDD3DF"/></svg>