<svg width="65" height="57" fill="none" xmlns="http://www.w3.org/2000/svg"><g opacity=".9" fill="#3284FF"><path d="M35.29 48.106a2.821 2.821 0 00-2.643-1.85 2.816 2.816 0 00-2.643 3.775 2.822 2.822 0 002.643 1.85 2.816 2.816 0 002.643-3.775zm-2.322 1.844a.935.935 0 01-1.202-.56.939.939 0 01.88-1.26.938.938 0 01.321 1.82z"/><path d="M64.548 39.46l-1.283-3.523a.935.935 0 00-.479-.526l-.005-.003c-.014-.007-.03-.012-.044-.018l-.04-.016c-.003-.002-.007-.002-.01-.003a.932.932 0 00-.623.005l-3.066 1.115-6.522-17.92-2.565-7.047a.942.942 0 00-1.202-.56.939.939 0 00-.56 1.2l2.245 6.168-12.04 4.382h-.002l-7.34 2.672-4.918-13.508 6.461-2.352 1.39 3.818a.94.94 0 001.201.56l4.7-1.71a.932.932 0 00.606-1.015v-.003a.872.872 0 00-.015-.073l-.004-.02a.942.942 0 00-.028-.09l-1.389-3.818 6.46-2.351 2.765 7.567c.135.369.614.617 1.006.617.109 0 .093-.018.196-.057a.939.939 0 00.56-1.201L46.918 3.3a.943.943 0 00-1.201-.56l-8.219 2.992h-.004l-.008.004-4.683 1.705-.008.002-.014.006-8.21 2.988a.932.932 0 00-.528.484.929.929 0 00-.031.717l5.558 15.27 5.344 14.686a7.756 7.756 0 00-2.117-.337L19.257 4.056a4.693 4.693 0 00-6.009-2.802L1.217 5.594h-.002l-.063.027-.024.01-.059.032-.024.014c-.018.01-.035.023-.053.036l-.023.016c-.017.012-.032.026-.047.039l-.024.02-.041.042-.022.023c-.013.014-.025.03-.037.045l-.02.025c-.011.015-.02.03-.03.046l-.02.03-.025.047-.017.032-.02.048-.014.036c-.006.015-.01.031-.014.047l-.012.039-.01.047-.008.042c-.003.016-.003.032-.005.048-.001.014-.004.028-.004.042v.092c0 .017.002.034.004.05l.004.042.01.05c.003.014.005.029.009.043l.015.05c.004.013.007.027.012.04v.001l.001.002 1.283 3.524c.01.027.023.05.034.076.01.02.017.04.027.059.015.026.032.05.05.074.01.015.019.032.03.047.02.026.044.049.066.072l.03.034c.026.024.054.044.082.065l.029.024c.03.02.062.038.094.054l.028.017a.922.922 0 00.101.04l.03.012a.96.96 0 00.108.025l.03.007a.911.911 0 00.222.008l.016-.002a.988.988 0 00.064-.009l.03-.006.05-.011.053-.017.025-.008h.002l.002-.001 11.15-4.023 13.22 36.325c-2.358 2.063-3.34 5.441-2.206 8.558a7.839 7.839 0 007.343 5.143c.91 0 1.809-.16 2.671-.473a7.762 7.762 0 004.409-4.04 7.793 7.793 0 00.732-3.153l23.527-8.555.019-.008a.892.892 0 00.07-.03c.01-.004.019-.01.028-.015.019-.01.037-.019.055-.03l.029-.02c.016-.01.032-.02.047-.032l.014-.012a.515.515 0 00.056-.047l.01-.01a.997.997 0 00.054-.056c.004-.003.006-.008.01-.012a.925.925 0 00.047-.058l.004-.007a.818.818 0 00.045-.069l.007-.013a.97.97 0 00.035-.066l.011-.027.023-.057c.005-.013.008-.026.012-.04l.014-.046a.99.99 0 00.014-.07l.004-.018a.935.935 0 00-.047-.46zM37.254 7.817l1.069 2.937-2.937 1.069-1.069-2.937 2.937-1.069zm5.558 15.27l1.07 2.937-2.938 1.07-1.069-2.937 2.937-1.07zm-11.16 4.062l6.461-2.351 1.39 3.817a.94.94 0 001.201.56l4.7-1.71a.937.937 0 00.56-1.202l-1.39-3.816 6.461-2.352 6.201 17.037-18.706 6.803a7.857 7.857 0 00-1.163-1.086l-5.714-15.7zm-15.92-21.81c-.005-.015-.012-.029-.018-.044l-.018-.043-.02-.037-.026-.046-.02-.03c-.01-.015-.02-.031-.032-.046l-.02-.023a.364.364 0 00-.04-.048l-.017-.017c-.016-.016-.03-.032-.047-.047l-.015-.011a.856.856 0 00-.056-.045l-.009-.006a.963.963 0 00-.067-.044l-.005-.003a.94.94 0 00-.423-.126h-.004a.928.928 0 00-.088 0l-.016.002a.91.91 0 00-.075.007l-.037.007-.055.011-.063.02-.028.008h-.003v.001L3.38 8.8l-.641-1.762 11.148-4.021.002-.001a2.816 2.816 0 013.605 1.681l13.38 36.763c-.303.07-.604.159-.9.267a7.845 7.845 0 00-.861.375L15.733 5.338zm22.296 46.24a5.899 5.899 0 01-3.35 3.07 5.92 5.92 0 01-2.03.36 5.957 5.957 0 01-5.58-3.909 5.945 5.945 0 015.578-7.97c2.487 0 4.73 1.57 5.58 3.909a5.898 5.898 0 01-.198 4.54zm2.227-4.28a7.787 7.787 0 00-.641-1.762l22.21-8.077.641 1.762-22.21 8.077z"/></g></svg>