<svg width="195" height="144" fill="none" xmlns="http://www.w3.org/2000/svg"><g opacity=".2" fill="#3284FF"><circle opacity=".3" cx="63.063" cy="63.309" r="62.704"/><path d="M67.624 128.954h0a2.784 2.784 0 002.782-2.782v0a2.783 2.783 0 10-2.782 2.782zm-3.86-8.558a6.941 6.941 0 018.77.866 6.954 6.954 0 012.037 4.91 6.945 6.945 0 01-8.302 6.813 6.943 6.943 0 01-5.459-5.458 6.948 6.948 0 012.954-7.131zm106.018 8.558h.001a2.785 2.785 0 002.782-2.782v0a2.788 2.788 0 00-1.718-2.571 2.78 2.78 0 00-3.635 3.636 2.782 2.782 0 002.57 1.717zm-3.859-8.558a6.94 6.94 0 018.769.866 6.94 6.94 0 01.866 8.769 6.944 6.944 0 01-10.688 1.053 6.943 6.943 0 01-1.506-7.571 6.944 6.944 0 012.559-3.117z" stroke="#F2F2F2" stroke-width=".7"/><path d="M188.213 97.098l.082.236h3.378a2.083 2.083 0 012.083 2.082v26.756a2.085 2.085 0 01-2.083 2.082h-5.344l-.043.3a16.676 16.676 0 01-33.007 0l-.043-.3H84.171l-.044.3a16.678 16.678 0 01-16.503 14.295 16.675 16.675 0 01-16.503-14.295l-.044-.3h-5.344a2.083 2.083 0 01-2.082-2.082V48.337a2.082 2.082 0 012.082-2.082h102.158a2.085 2.085 0 012.083 2.082v19.809h26.801a2.083 2.083 0 011.969 1.406l9.469 27.546zM175.37 72.547l-.081-.236h-25.315v25.023h33.917l-.159-.464-8.362-24.323zM48.165 50.42h-.35v73.67h3.263l.043-.3a16.673 16.673 0 0133.006 0l.044.3h61.638V50.42H48.165zm19.459 88.264h0a12.525 12.525 0 0012.512-12.512v0a12.509 12.509 0 00-14.953-12.271 12.512 12.512 0 002.441 24.783zm102.158 0h.001a12.523 12.523 0 0012.511-12.512v0a12.508 12.508 0 00-7.724-11.559 12.51 12.51 0 00-17.059 9.118 12.51 12.51 0 0012.271 14.953zm19.459-14.594h.35v-22.591h-39.617v22.591h3.262l.043-.3a16.672 16.672 0 0116.503-14.295 16.672 16.672 0 0116.504 14.295l.043.3h2.912z" stroke="#F2F2F2" stroke-width=".7"/><path d="M106.891 94.552v-.35H70.056a2.082 2.082 0 01-2.082-2.083V72.66a2.082 2.082 0 012.082-2.082h36.835v-5.214a2.088 2.088 0 011.222-1.897 2.085 2.085 0 012.232.33l19.459 17.026.23-.264-.23.264a2.092 2.092 0 01.711 1.567 2.093 2.093 0 01-.711 1.567l.23.264-.23-.264-19.459 17.026a2.082 2.082 0 01-3.454-1.567v-4.864zm-34.402-19.81h-.35v15.295h36.835a2.08 2.08 0 012.082 2.082v2.708l.581-.508 13.332-11.666.301-.263-.301-.264-13.332-11.666-.581-.508v2.708a2.08 2.08 0 01-2.082 2.083H72.489z" stroke="#F2F2F2" stroke-width=".7"/></g></svg>