<svg width="188" height="126" fill="none" xmlns="http://www.w3.org/2000/svg"><g opacity=".2" fill="#3284FF"><path d="M179.551 70.286h0l7.048-8.359.229.194-.229-.194c.33-.392.483-.904.423-1.413l-3.274-27.434.298-.036-.298.036a1.853 1.853 0 00-3.203-1.033l-14.824 16.148-.077.084-.114.011-27.091 2.76h0a1.853 1.853 0 00-1.655 2.029l42.767 17.207zm0 0c-.11.131-.237.246-.38.341h0l-11.873 8.009-.143.097.012.172.776 11.43.017.254.254.024 8.505.81a1.851 1.851 0 011.548 1.166l5.408 13.768h0c.17.433.171.913.003 1.347h0l-3.817 9.834a1.85 1.85 0 01-1.474 1.164h0a1.852 1.852 0 01-1.734-.724l-7.697-10.272-.109-.144-.178.028-6.814 1.076-.174.027-.061.165-3.005 8.158.281.104-.281-.104a1.852 1.852 0 01-1.37 1.175l-18.645 3.78.059.294-.059-.294a1.852 1.852 0 01-.737-3.63l17.47-3.541.164-.033.058-.157 3.026-8.216a1.853 1.853 0 011.449-1.189l9.341-1.475s0 0 0 0a1.852 1.852 0 011.771.718l6.15 8.207.324.432.195-.503 2.11-5.437.043-.109-.043-.109-4.618-11.755-.067-.172-.184-.017-9.009-.858-.028.298.028-.298a1.851 1.851 0 01-1.672-1.718l-.983-14.49a1.853 1.853 0 01.812-1.66l12.651-8.534.035-.023.026-.032 6.253-7.416.084-.1-.016-.129-2.608-21.857-.077-.648-.442.48-12.21 13.302.204.188-.204-.188a1.852 1.852 0 01-1.177.59l-27.905 2.842h0m40.737 15.552l-40.737-15.552m0 0a1.853 1.853 0 01-2.03-1.655l2.03 1.655zm-10.39 65.521h0l-7.132 1.446-.162.033-.114-.12-16.989-17.824.217-.207-.217.207a1.853 1.853 0 00-1.793-.518h0l-12.327 3.106-.185.047-.12-.148-5.527-6.802a1.853 1.853 0 00-1.262-.676l-20.65-1.967h0a1.851 1.851 0 00-1.42.474h0c-.387.35-.607.848-.607 1.37v4.653l-.086.088-8.168 8.352-.385.393-.122-.536-2.678-11.744-.02-.088.032-.085 3.468-9.11s0 0 0 0c.18-.473.159-.999-.06-1.455h0a1.85 1.85 0 00-1.093-.963h0l-5.958-1.953-.264-.087.066-.27 7.238-29.574.03-.12.105-.064 13.662-8.359.138-.084.145.068L77.78 53.13h0a1.851 1.851 0 101.562-3.358l-12.639-5.878s0 0 0 0a1.853 1.853 0 00-1.747.099l63.469 76.262zm0 0a1.85 1.85 0 012.183 1.447h0a1.852 1.852 0 01-1.447 2.183l-8.297 1.682 7.561-5.312zM49.552 53.416l15.403-9.423 55.908 81.574a1.845 1.845 0 01-1.708-.537l-16.943-17.776-.121-.127-.17.043-12.44 3.135h0a1.852 1.852 0 01-1.889-.628l-.233.189.233-.189-5.823-7.167-.08-.098-.124-.012-17.397-1.657-.329-.031v3.372c0 .484-.189.949-.527 1.295h0l-11.542 11.8s0 0 0 0a1.852 1.852 0 01-3.13-.883l-.292.067.293-.067-3.7-16.226a1.85 1.85 0 01.075-1.07h0l2.897-7.61.112-.294-.299-.098-5.707-1.872a1.852 1.852 0 01-1.222-2.2l-.291-.071.29.071 7.923-32.37s0 0 0 0c.117-.475.416-.885.833-1.14 0 0 0 0 0 0z" stroke="#F2F2F2" stroke-width=".6"/><path d="M108.315 73.715l.404.37.405-.37c6.058-5.534 10.566-10.638 13.565-15.255 2.994-4.61 4.511-8.777 4.511-12.425 0-11.141-8.158-19.076-18.481-19.076-10.322 0-18.48 7.935-18.48 19.076 0 3.648 1.517 7.815 4.511 12.425 2.999 4.617 7.507 9.721 13.565 15.255zm.404-22.916c-2.946 0-5.36-2.414-5.36-5.36 0-2.947 2.414-5.36 5.36-5.36 2.947 0 5.36 2.413 5.36 5.36 0 2.946-2.413 5.36-5.36 5.36zm0-28.6c12.204 0 23.241 9.345 23.241 23.836 0 4.785-1.925 10.07-5.861 15.87-3.869 5.704-9.656 11.871-17.38 18.504-7.723-6.633-13.51-12.8-17.38-18.504-3.935-5.8-5.86-11.085-5.86-15.87 0-14.491 11.037-23.837 23.24-23.837z" stroke="#F2F2F2" stroke-width="1.2"/><circle opacity=".3" cx="62.711" cy="63.199" r="62.704"/></g></svg>