<svg width="163" height="155" fill="none" xmlns="http://www.w3.org/2000/svg"><g opacity=".2" fill="#3284FF"><circle opacity=".3" cx="62.975" cy="63.499" r="62.704"/><path d="M81.513 141.996c0-6.565 5.342-11.906 11.907-11.906s11.907 5.341 11.907 11.906c0 6.566-5.342 11.907-11.907 11.907s-11.907-5.341-11.907-11.907zm4.224 0c0 4.237 3.446 7.684 7.683 7.684s7.683-3.447 7.683-7.684-3.446-7.683-7.683-7.683-7.683 3.446-7.683 7.683zm44.398 0c0-6.565 5.342-11.906 11.907-11.906 6.564 0 11.906 5.341 11.906 11.906 0 6.566-5.341 11.907-11.906 11.907s-11.907-5.341-11.907-11.907zm4.224 0c0 4.237 3.446 7.684 7.683 7.684 4.236 0 7.683-3.447 7.683-7.684s-3.447-7.683-7.683-7.683c-4.237 0-7.683 3.446-7.683 7.683zM71.818 122.36v.35h88.117a2.112 2.112 0 110 4.224H69.707a2.112 2.112 0 01-2.112-2.112V61.247l-.103-.102-19.259-19.259h0A2.112 2.112 0 1151.22 38.9s0 0 0 0L71.2 58.88c.396.395.618.933.618 1.493v61.987z" stroke="#F2F2F2" stroke-width=".7"/><path d="M83.192 53.388h-.35v61.998a2.112 2.112 0 01-4.224 0v-64.11c0-1.166.945-2.111 2.112-2.111h71.106c1.167 0 2.112.945 2.112 2.111v64.11a2.112 2.112 0 01-2.112 2.112h-44.707a2.112 2.112 0 110-4.224h42.596V53.388h-18.602V77.62a2.11 2.11 0 01-1.144 1.877h0a2.109 2.109 0 01-2.191-.155s0 0 0 0l-11.302-8.032-.203-.144-.202.144-11.302 8.032h0a2.11 2.11 0 01-2.191.155h0a2.112 2.112 0 01-1.144-1.877V65.237a2.112 2.112 0 114.224 0v8.291l.552-.393 8.84-6.282h0a2.112 2.112 0 012.447 0l8.839 6.282.553.393v-20.14H83.192zm57.357 87.115a2.127 2.127 0 00-.619 1.495c0 .554.225 1.098.619 1.493 0 0 0 0 0 0m0-2.988v2.988m0-2.988c.392-.391.939-.62 1.492-.62.554 0 1.102.229 1.493.62.394.394.619.938.619 1.495a2.13 2.13 0 01-.619 1.493m-2.985-2.988l2.985 2.988m-2.985 0c.391.39.935.616 1.492.616.555 0 1.102-.226 1.493-.616m-2.985 0h2.985m-51.609-2.988a2.14 2.14 0 011.496-.617c.554 0 1.102.226 1.492.617.394.394.62.938.62 1.495 0 .553-.226 1.098-.62 1.492a2.133 2.133 0 01-1.492.617 2.148 2.148 0 01-1.496-.616 2.142 2.142 0 01-.616-1.493c0-.557.225-1.101.616-1.495z" stroke="#F2F2F2" stroke-width=".7"/></g></svg>