<svg width="158" height="156" fill="none" xmlns="http://www.w3.org/2000/svg"><g opacity=".2" fill="#3284FF"><circle opacity=".3" cx="62.976" cy="63.499" r="62.704"/><path d="M55.997 109.142h0V40.2c0-2.974 1.229-5.822 3.411-7.92 2.183-2.098 5.14-3.275 8.22-3.275 3.08 0 6.037 1.177 8.22 3.274 2.182 2.099 3.411 4.947 3.411 7.92v68.943c0 .3.077.596.227.862.149.265.365.492.631.659 0 0 0 0 0 0l-.186.296-23.934-1.817zm0 0c0 .3-.077.596-.227.862a1.86 1.86 0 01-.631.659m.858-1.521l-.858 1.521m0 0s0 0 0 0l.186.296-.186-.296zm27.933-2.662v.184l.15.104c4.595 3.172 8.022 7.661 9.79 12.821a24.718 24.718 0 01.057 15.894c-1.732 5.171-5.126 9.683-9.698 12.885-4.571 3.202-10.084 4.928-15.743 4.928-5.66 0-11.172-1.726-15.743-4.928-4.572-3.202-7.966-7.714-9.698-12.885a24.718 24.718 0 01.057-15.894c1.769-5.16 5.195-9.649 9.79-12.821l.15-.104V40.2c0-3.93 1.624-7.7 4.519-10.483 2.895-2.783 6.825-4.35 10.925-4.35 4.1 0 8.03 1.567 10.925 4.35 2.895 2.782 4.519 6.554 4.519 10.483V108z" stroke="#F2F2F2" stroke-width=".7"/><path d="M65.022 113.84V40.199c0-.672.278-1.314.768-1.785a2.653 2.653 0 011.838-.733c.687 0 1.348.262 1.838.733.49.47.768 1.113.768 1.786v73.64c0 .3.078.596.227.861.149.266.366.493.631.659l-6.07-1.52zm0 0c0 .3-.078.596-.227.861-.15.266-.366.493-.632.66l-4.092 2.567s0 0 0 0c-2.504 1.571-4.416 3.878-5.45 6.58a12.888 12.888 0 00-.28 8.416c.85 2.761 2.605 5.182 5 6.903a14.253 14.253 0 008.286 2.66h.002a14.252 14.252 0 008.287-2.66c2.394-1.721 4.149-4.142 5-6.903a12.888 12.888 0 00-.281-8.416c-1.034-2.702-2.946-5.009-5.45-6.58 0 0 0 0 0 0l-4.093-2.567-6.07-1.521zm12.257 1.048l.249.157c3.078 1.994 5.426 4.869 6.71 8.218a16.365 16.365 0 01.36 10.703c-1.082 3.512-3.318 6.596-6.376 8.791-3.058 2.195-6.774 3.382-10.594 3.382-3.82 0-7.536-1.187-10.594-3.382-3.058-2.195-5.294-5.279-6.377-8.791a16.365 16.365 0 01.362-10.703c1.318-3.438 3.757-6.377 6.957-8.376v-.001l3.07-1.923.163-.103V40.2c0-1.629.673-3.193 1.875-4.349a6.56 6.56 0 014.544-1.808 6.56 6.56 0 014.544 1.808 6.031 6.031 0 011.875 4.349v72.66l.164.103 3.068 1.925zm46.755-28.792h0c7.865-.008 15.407-3.016 20.972-8.365 5.566-5.35 8.7-12.607 8.709-20.18v0c0-5.65-1.743-11.17-5.006-15.864-3.263-4.695-7.9-8.352-13.321-10.51a30.78 30.78 0 00-17.142-1.624c-5.755 1.1-11.043 3.817-15.195 7.808-4.152 3.992-6.981 9.078-8.127 14.618a27.532 27.532 0 001.69 16.5c2.248 5.218 6.054 9.675 10.935 12.81s10.617 4.807 16.485 4.807zM105.42 30.795c5.509-3.538 11.986-5.427 18.613-5.427 8.885.01 17.4 3.407 23.678 9.442 6.278 6.034 9.806 14.213 9.816 22.741 0 6.362-1.962 12.582-5.641 17.874-3.679 5.293-8.909 9.42-15.031 11.857a34.758 34.758 0 01-19.358 1.833c-6.5-1.243-12.468-4.31-17.152-8.812-4.683-4.502-7.87-10.236-9.162-16.476a31.016 31.016 0 011.905-18.588c2.533-5.879 6.824-10.906 12.332-14.444z" stroke="#F2F2F2" stroke-width=".7"/><path d="M132.709 57.55v.35h7.118c.369 0 .73.103 1.038.294.308.19.55.461.7.778.15.317.201.667.149 1.01l.345.053-.345-.053a1.785 1.785 0 01-.447.93l-15.793 17.35h0a1.907 1.907 0 01-.647.462 1.984 1.984 0 01-1.586 0l-.14.321.14-.32a1.897 1.897 0 01-.647-.463h0L106.8 60.912a1.776 1.776 0 01-.446-.93 1.743 1.743 0 01.148-1.01c.15-.317.392-.587.701-.778a1.97 1.97 0 011.037-.293h7.119V35.86c0-.477.197-.938.553-1.28a1.954 1.954 0 011.353-.538h13.537c.51 0 .997.195 1.353.538.356.342.554.803.554 1.28v21.69zm-8.934 16.462l.259.284.258-.284 10.83-11.888.534-.586h-4.854a1.95 1.95 0 01-1.352-.537 1.774 1.774 0 01-.554-1.282V37.681h-9.725v22.038c0 .478-.197.94-.553 1.282a1.954 1.954 0 01-1.353.537h-4.854l.534.586 10.83 11.888z" stroke="#F2F2F2" stroke-width=".7"/></g></svg>