<svg width="141" height="152" fill="none" xmlns="http://www.w3.org/2000/svg"><circle opacity=".08" cx="62.806" cy="62.762" r="62.5" fill="#3284FF"/><g opacity=".3" fill="#3284FF"><path d="M93.346 47.125L57.426 64.71a1.969 1.969 0 00-1.11 1.757v34.903c0 8.275 5.58 18.802 12.421 23.466l24.361 16.61a1.966 1.966 0 002.21 0l24.369-16.609c6.842-4.665 12.424-15.192 12.424-23.467V66.52a1.971 1.971 0 00-1.108-1.756L95.075 47.126a1.974 1.974 0 00-1.73-.001zm34.843 20.613v33.632c0 6.893-5.014 16.348-10.715 20.235l-23.258 15.858-23.27-15.858c-5.7-3.887-10.72-13.342-10.72-20.235V67.686L94.205 51.06l33.985 16.678z"/><path d="M139.041 59.76L95.088 38.183a1.974 1.974 0 00-1.73 0L49.38 59.702a1.99 1.99 0 00-1.133 1.756v39.912c0 10.795 7.024 24.017 15.947 30.1l28.895 19.695c.67.454 1.547.454 2.216 0l28.912-19.694c8.924-6.084 15.95-19.306 15.95-30.101V61.517a1.988 1.988 0 00-1.127-1.756zm-2.784 41.61c0 9.636-6.275 21.438-14.241 26.87l-27.792 18.942-27.817-18.943c-7.965-5.43-14.248-17.233-14.248-26.869V62.677l42.05-20.56 42.048 20.618v38.635z"/><path d="M78.872 87.577a1.956 1.956 0 00-2.766-.013l-5.559 5.504a1.956 1.956 0 00-.013 2.765l16.781 16.928c.368.366.867.568 1.386.562h.005a1.94 1.94 0 001.382-.554l27.788-27.78a1.949 1.949 0 000-2.762l-5.532-5.529a1.956 1.956 0 00-2.766 0l-20.84 20.84-9.866-9.961zm32.09-6.727l2.765 2.766-25.015 25.015-14.022-14.16 2.779-2.752 9.874 9.997c.363.377.861.596 1.384.606h.005a1.981 1.981 0 001.383-.599l20.847-20.873z"/></g></svg>