<svg width="152" height="134" fill="none" xmlns="http://www.w3.org/2000/svg"><circle opacity=".08" cx="63.215" cy="62.894" r="62.5" fill="#3284FF"/><g opacity=".3" fill="#3284FF"><path d="M138.939 43.157h-26.145v-6.02c0-5.608-4.534-10.302-10.141-10.302h-24.51c-5.665.057-10.244 4.636-10.301 10.301v6.02H41.697c-7.081 0-12.92 5.734-12.92 12.816v64.379c0 7.084 5.839 12.977 12.92 12.977h97.242c7.081 0 12.92-5.893 12.92-12.977v-64.38c0-7.081-5.839-12.814-12.92-12.814zm-66.816-6.02a6.124 6.124 0 016.02-6.021h24.51c3.246 0 5.86 2.774 5.86 6.02v6.02h-36.39v-6.02zm75.188 83.348a8.562 8.562 0 01-8.563 8.562H41.62a8.562 8.562 0 01-8.563-8.562V56a8.563 8.563 0 018.563-8.562h97.128A8.563 8.563 0 01147.311 56v64.485z"/><path d="M90.318 68.836c-11.834.013-21.425 9.603-21.438 21.437a2.142 2.142 0 004.21.545c.177-.671.577-1.655.85-1.988a2.84 2.84 0 011.905-.758 2.722 2.722 0 011.895.744c.5.523.782 1.217.789 1.94a2.14 2.14 0 004.281 0 2.622 2.622 0 012.683-2.684 2.72 2.72 0 011.895.744c.5.523.782 1.217.79 1.94v14.48a.54.54 0 11-1.08 0 2.14 2.14 0 00-4.282 0 4.822 4.822 0 109.642 0v-14.48a2.623 2.623 0 012.683-2.684 2.72 2.72 0 011.895.744c.5.524.782 1.217.79 1.94a2.14 2.14 0 004.281 0 2.621 2.621 0 012.684-2.684 2.724 2.724 0 011.888.739c.273.313.679 1.306.866 2.007a2.14 2.14 0 004.21-.545c-.013-11.834-9.603-21.424-21.437-21.437zM104.79 83.79a7.132 7.132 0 00-4.823 1.905 7.04 7.04 0 00-4.827-1.905 7.128 7.128 0 00-4.821 1.905 7.045 7.045 0 00-4.827-1.905 7.132 7.132 0 00-4.822 1.905 7.041 7.041 0 00-6.302-1.748 17.158 17.158 0 0131.897-.001 7.072 7.072 0 00-1.475-.156z"/><path d="M90.318 58.124c-17.3 0-31.323 14.023-31.323 31.323 0 17.299 14.024 31.322 31.323 31.322s31.322-14.023 31.322-31.322c-.02-17.291-14.032-31.303-31.322-31.323zm0 58.364c-14.935 0-27.042-12.106-27.042-27.041s12.107-27.042 27.042-27.042c14.935 0 27.041 12.107 27.041 27.042-.017 14.927-12.114 27.025-27.041 27.041z"/></g></svg>