<svg width="126" height="130" fill="none" xmlns="http://www.w3.org/2000/svg"><g opacity=".3" fill="#3284FF"><path d="M122.219 54.706c0-.02-.02-.06-.02-.08 0-.04-.019-.059-.019-.098 0-.02-.02-.06-.02-.08a.15.15 0 00-.04-.079c-.02-.02-.02-.06-.039-.08-.02-.019-.02-.059-.04-.078-.02-.02-.02-.06-.04-.08a.391.391 0 00-.079-.119c-.02-.02-.02-.04-.04-.059a.385.385 0 00-.079-.099L105.5 33.624c-.039-.059-.099-.099-.138-.158-.02-.02-.02-.02-.04-.02l-.119-.119c-.02-.02-.04-.02-.059-.04-.04-.019-.08-.059-.119-.078-.02-.02-.04-.02-.06-.04l-.118-.06c-.02-.02-.04-.02-.06-.04-.04-.019-.079-.039-.139-.059-.019 0-.039-.02-.059-.02-.04-.02-.099-.02-.139-.039-.019 0-.039-.02-.059-.02-.06-.02-.099-.02-.159-.02h-.059c-.079 0-.139-.02-.218-.02H51.223c-1.09 0-1.981.892-1.981 1.982v8.143h-6.24c-1.09 0-1.981.892-1.981 1.981v82.582c0 1.09.891 1.982 1.98 1.982h69.175a1.988 1.988 0 001.981-1.982v-8.143h6.101c1.09 0 1.981-.892 1.981-1.981V54.824c0-.039 0-.079-.02-.118zM105.936 40.46l10.182 12.64h-10.182V40.46zm-3.387 15.89l5.467 6.737H97.854V50.565l4.437 5.468c.079.12.159.218.258.317zM53.204 36.834h48.77v12.502l-4.556-5.607c-.04-.06-.099-.099-.139-.158l-.04-.04c-.039-.04-.079-.06-.118-.1-.02-.019-.04-.019-.06-.039-.04-.02-.079-.06-.118-.079-.02-.02-.04-.02-.06-.04l-.119-.059c-.02-.02-.04-.02-.06-.02-.039-.02-.098-.04-.138-.06-.02 0-.04-.019-.06-.019-.039-.02-.098-.02-.138-.04-.02 0-.04-.02-.06-.02-.059-.02-.098-.02-.158-.02h-.06c-.078 0-.138-.02-.217-.02h-42.67v-6.181zm-8.221 88.764v-78.64h48.909v18.11c0 1.09.891 1.981 1.98 1.981h14.323v58.549H44.983zm73.294-10.105h-4.12V64.79c0-.039 0-.079-.02-.118 0-.02-.02-.06-.02-.08 0-.039-.02-.059-.02-.099 0-.04-.019-.059-.019-.079a.15.15 0 00-.04-.079c-.02-.02-.02-.06-.04-.08-.019-.019-.019-.059-.039-.078-.02-.02-.02-.06-.04-.08-.02-.04-.039-.079-.059-.099-.02-.02-.02-.04-.04-.04-.04-.039-.059-.098-.099-.138l-5.467-6.736h10.023v58.409z"/><path d="M97.854 75.153h-40.53c-1.09 0-1.981.892-1.981 1.981 0 1.09.891 1.982 1.98 1.982h40.53c1.09 0 1.982-.892 1.982-1.982 0-1.09-.892-1.98-1.981-1.98zm0 12.086h-40.53c-1.09 0-1.981.892-1.981 1.981 0 1.09.891 1.982 1.98 1.982h40.53c1.09 0 1.982-.892 1.982-1.982 0-1.09-.892-1.981-1.981-1.981zm0 12.086h-40.53c-1.09 0-1.981.892-1.981 1.982 0 1.089.891 1.981 1.98 1.981h40.53c1.09 0 1.982-.892 1.982-1.981 0-1.09-.892-1.982-1.981-1.982zm0 12.086h-40.53c-1.09 0-1.981.892-1.981 1.982 0 1.089.891 1.981 1.98 1.981h40.53c1.09 0 1.982-.892 1.982-1.981 0-1.09-.892-1.982-1.981-1.982z"/></g><circle opacity=".08" cx="62.569" cy="62.661" r="62.5" fill="#3284FF"/></svg>