<svg width="23" height="17" fill="none" xmlns="http://www.w3.org/2000/svg"><path opacity=".5" d="M5.826.319c1.546 0 2.813.467 3.8 1.4.986.933 1.48 2.173 1.48 3.72a7.97 7.97 0 01-.28 2.08c-.187.693-.614 1.747-1.28 3.16l-2.8 5.96h-5.6l2-6.76c-.827-.4-1.467-.973-1.92-1.72-.454-.773-.68-1.68-.68-2.72 0-1.547.493-2.787 1.48-3.72.986-.933 2.253-1.4 3.8-1.4zm11.6 0c1.546 0 2.813.467 3.8 1.4.986.933 1.48 2.173 1.48 3.72a7.97 7.97 0 01-.28 2.08c-.187.693-.614 1.747-1.28 3.16l-2.8 5.96h-5.6l2-6.76c-.827-.4-1.467-.973-1.92-1.72-.454-.773-.68-1.68-.68-2.72 0-1.547.493-2.787 1.48-3.72.986-.933 2.253-1.4 3.8-1.4z" fill="#fff"/></svg>