<svg width="31" height="26" fill="none" xmlns="http://www.w3.org/2000/svg"><g opacity=".5" filter="url(#filter0_d)"><path d="M12.677 7.479c.827.4 1.467.987 1.92 1.76.454.747.68 1.64.68 2.68 0 1.547-.493 2.787-1.48 3.72-.986.933-2.253 1.4-3.8 1.4-1.546 0-2.813-.467-3.8-1.4-.986-.933-1.48-2.173-1.48-3.72a8 8 0 01.28-2.08c.187-.693.614-1.747 1.28-3.16l2.8-5.96h5.6l-2 6.76zm11.6 0c.827.4 1.467.987 1.92 1.76.454.747.68 1.64.68 2.68 0 1.547-.493 2.787-1.48 3.72-.986.933-2.253 1.4-3.8 1.4-1.546 0-2.813-.467-3.8-1.4-.986-.933-1.48-2.173-1.48-3.72a8 8 0 01.28-2.08c.187-.693.614-1.747 1.28-3.16l2.8-5.96h5.6l-2 6.76z" fill="#fff"/></g><defs><filter id="filter0_d" x=".717" y=".719" width="30.16" height="24.32" filterUnits="userSpaceOnUse" color-interpolation-filters="sRGB"><feFlood flood-opacity="0" result="BackgroundImageFix"/><feColorMatrix in="SourceAlpha" values="0 0 0 0 0 0 0 0 0 0 0 0 0 0 0 0 0 0 127 0" result="hardAlpha"/><feOffset dy="4"/><feGaussianBlur stdDeviation="2"/><feComposite in2="hardAlpha" operator="out"/><feColorMatrix values="0 0 0 0 0 0 0 0 0 0 0 0 0 0 0 0 0 0 0.25 0"/><feBlend in2="BackgroundImageFix" result="effect1_dropShadow"/><feBlend in="SourceGraphic" in2="effect1_dropShadow" result="shape"/></filter></defs></svg>