<svg width="35" height="49" fill="none" xmlns="http://www.w3.org/2000/svg"><g opacity=".9" fill="#3284FF"><path d="M11.113 20.313h6.194v1.548h-6.194v-1.549zm0 3.097h6.194v1.548h-6.194v-1.549zm0 3.096h6.194v1.549h-6.194v-1.549zm10.839-6.193h6.193v1.548h-6.193v-1.549zm0 3.097h6.193v1.548h-6.193v-1.549zm0 3.096h6.193v1.549h-6.193v-1.549z"/><path d="M33.565 17.99h-2.323v-2.323a.776.776 0 00-.884-.766L19.63 16.434 8.901 14.9a.775.775 0 00-.885.766v2.323H5.694a.773.773 0 00-.774.774v17.032c0 .429.346.775.774.775h19.355v8.516a2.326 2.326 0 01-2.323 2.322h-.774v-.774a2.326 2.326 0 00-2.323-2.322H7.242a2.326 2.326 0 00-2.322 2.322v.774h-.775a2.326 2.326 0 01-2.322-2.322V4.829c0-.959.583-1.783 1.414-2.137l4.232 4.232a.77.77 0 00.547.227h10.84a.77.77 0 00.547-.227l4.232-4.232a2.326 2.326 0 011.414 2.137v9.29h1.548v-9.29a3.876 3.876 0 00-3.87-3.871H4.144a3.876 3.876 0 00-3.87 3.87v40.259a3.876 3.876 0 003.87 3.87h18.581a3.876 3.876 0 003.871-3.87V36.57h6.968a.773.773 0 00.774-.775V18.764a.773.773 0 00-.774-.774zM18.535 5.603H8.337L5.24 2.506h16.391l-3.096 3.097zM6.468 46.635c0-.427.347-.774.774-.774H19.63c.427 0 .775.347.775.774v.774H6.468v-.774zm13.936-28.748l9.29-1.327v13.92l-9.29 1.326V17.887zM9.564 16.56l9.291 1.327v13.92l-9.29-1.328V16.56zm23.227 18.462H6.468V19.538h1.548v11.613c0 .386.284.712.665.767l10.838 1.548a.767.767 0 00.22 0l10.84-1.548a.774.774 0 00.663-.767V19.538h1.549v15.484z"/></g></svg>