<svg width="44" height="49" fill="none" xmlns="http://www.w3.org/2000/svg"><g opacity=".9" fill="#3284FF"><path d="M41.166 7.819H35.91V1.904a.935.935 0 00-.935-.935H9.281a.934.934 0 00-.935.935v5.915H3.091a2.826 2.826 0 00-2.824 2.823v15.051a.934.934 0 001.87 0V10.641c0-.525.428-.953.954-.953h5.255v23.416h-6.21v-6.666a.934.934 0 00-1.869 0V37.91a2.827 2.827 0 002.824 2.824h13.43l-.514 4.408a2.023 2.023 0 01-2.011 1.795h-.041l-1.18.003a.934.934 0 000 1.869h18.768a.934.934 0 000-1.869l-1.18-.002a1.153 1.153 0 00-.04 0 2.023 2.023 0 01-2.012-1.798l-.513-4.406h13.368a2.827 2.827 0 002.823-2.824V10.642a2.826 2.826 0 00-2.823-2.823zm0 1.869c.526 0 .955.428.955.954v22.462h-6.21V9.688h5.255zm-7.124-6.85v30.265H10.215V2.838h23.827zm8.079 32.134v2.938a.956.956 0 01-.955.955H3.09a.956.956 0 01-.955-.955v-2.938H42.12zM26.455 45.355c.066.58.257 1.116.543 1.585H17.32c.286-.47.477-1.006.542-1.584l.54-4.622h7.513l.539 4.621z"/><path d="M16.99 9.812a.934.934 0 001.302-.226 4.859 4.859 0 013.965-2.057c2.05 0 3.805 1.28 4.513 3.082l-.136-.075a.934.934 0 10-.901 1.637l1.855 1.022a.944.944 0 001.15-.2l1.452-1.64a.934.934 0 00-1.4-1.238l-.151.171c-.88-2.684-3.408-4.628-6.382-4.628a6.73 6.73 0 00-5.492 2.85.934.934 0 00.225 1.302zm-2.601 4.906c.382.337.982.3 1.319-.081l.162-.183c.877 2.69 3.408 4.64 6.387 4.64 2.25 0 4.34-1.119 5.59-2.993a.934.934 0 10-1.554-1.037 4.844 4.844 0 01-4.036 2.161 4.855 4.855 0 01-4.51-3.071l.117.064a.934.934 0 10.902-1.637l-1.748-.963a.958.958 0 00-1.259.14l-1.45 1.64a.934.934 0 00.08 1.32zm.767 9.422h14.006a.934.934 0 000-1.869H15.156a.934.934 0 000 1.87zm9.861 3.267h-9.86a.934.934 0 000 1.869h9.86a.934.934 0 000-1.869z"/></g></svg>