<svg width="64" height="44" fill="none" xmlns="http://www.w3.org/2000/svg"><g opacity=".9" fill="#3284FF" stroke="#2E2E2E" stroke-width=".1"><path d="M16.418 10.913h0a87.562 87.562 0 0012.774-1.081.888.888 0 01.241-.017m-13.015 1.098L29.43 9.865m-13.012 1.048a.922.922 0 10.032 1.845m-.032-1.845l.032 1.795m12.983-2.893s0 0 0 0l-.003.05m.003-.05s0 0 0 0l-.003.05m.003-.05a6.318 6.318 0 013.012.95l.003.002h0a.923.923 0 01-.536 1.67h0a.947.947 0 01-.593-.21M29.43 9.866a6.27 6.27 0 012.989.943.872.872 0 01-.507 1.578.897.897 0 01-.565-.2m-.028.042l.003.002.025-.044m-.028.042l-.003-.003.031-.039m-.028.042a4.305 4.305 0 00-1.893-.561m1.921.52a4.356 4.356 0 00-1.924-.57m0 0l.008.049h-.006m-.002-.05a90.639 90.639 0 01-12.95 1.092h-.023m12.973-1.091l-.003.05h.005m0 0a90.68 90.68 0 01-12.952 1.091h0v0h-.023m0 0s0 0 0 0v-.05m0 .05h0v-.05"/><path d="M37.474 24.217h0l9.611 6.931-9.611-6.93zm0 0l-.697-.497s0 0 0 0a.92.92 0 00-1.46.902.921.921 0 00.389.6l10.267 7.394c.039.038.08.072.107.09 0 0 0 0 0 0l.187.13s0 0 0 0a3.567 3.567 0 002.102.681m-10.895-9.3l-11.458-8.534M47.334 31.33h0a1.767 1.767 0 002.41-.333 1.74 1.74 0 00.305-1.574h0a1.7 1.7 0 00-.564-.858h0L35.773 17.394c-5.264 2.782-9 1.345-10.788.202h0a2.056 2.056 0 01.174-3.55s0 0 0 0l7.864-4.176h0a4.342 4.342 0 013.326-.291h0l4.652 1.51h0a5.999 5.999 0 004.154-.15h0l2.026-.83s0 0 0 0a.921.921 0 011.273.857.922.922 0 01-.572.85h0l-2.025.83 1.477 18.685zm0 0l-.164-.114m.163.114l-.163-.114M26.016 15.683h0a.213.213 0 00-.121.185v.003h0a.19.19 0 00.088.176h0a7.13 7.13 0 003.714 1.123c1.568.037 3.47-.392 5.716-1.681a.923.923 0 011.042.084s0 0 0 0l14.188 11.562s0 0 0 0a3.53 3.53 0 011.176 1.77 3.613 3.613 0 01-1.873 4.248c-.491.24-1.03.365-1.577.364M26.016 15.683l.002-.001m-.002 0h.002m22.35 17.835s0 0 0 0v-.05.05s0 0 0 0zm-22.35-17.835l7.865-4.177a2.479 2.479 0 011.898-.171l4.647 1.508m-14.41 2.84l14.41-2.84m6.742 18.375a.868.868 0 00-.084-.069l.084.069zm-6.742-18.375a7.83 7.83 0 005.43-.197l-5.43.197z"/><path d="M33.232 30.202h0l9.433 6.693s0 0 0 0a3.607 3.607 0 002.062.667v.002h.032a3.627 3.627 0 002.123-6.567h0l-9.404-6.776h0l-.002-.002a.923.923 0 00-1.076 1.496h0l.002.002 9.4 6.775a1.782 1.782 0 01-2.07 2.897L34.3 28.698h0a.922.922 0 00-1.068 1.504z"/><path d="M31.29 33.06h0l8.454 5.855a1.667 1.667 0 001.914-2.733s0 0 0 0l-8.41-5.966h-.001a.925.925 0 01.034-1.545.922.922 0 011.033.04s0 0 0 0l8.412 5.967h0a3.525 3.525 0 01-.124 5.818 3.49 3.49 0 01-1.275.505s0 0 0 0L31.291 33.06zm0 0a.922.922 0 10-1.05 1.517s0 0 0 0l8.453 5.855-7.402-7.372zm9.395 7.998v-.05l-1.992-.576c.585.407 1.28.626 1.992.626 0 0 0 0 0 0z"/><path d="M35.7 43.927s0 0 0 0a3.524 3.524 0 002-6.423s0 0 0 0l-5.995-4.151L35.7 43.926zm0 0h-.001 0zm-1.763-.48a3.54 3.54 0 001.762.48l-3.994-10.575a.921.921 0 00-1.3 1.258c.065.102.15.19.25.26h0l5.994 4.152h0a1.66 1.66 0 01.498 2.22 1.695 1.695 0 01-2.288.607s0 0 0 0l-4.691-2.705h0a.923.923 0 00-.923 1.598h0l4.692 2.705s0 0 0 0z"/><path d="M23.469 37.173h0l2.33-2.042-2.33 2.042zm0 0a3.558 3.558 0 002.35 6.233m-2.35-6.233l7.354-1.715m0 0h0a3.559 3.559 0 01-.328 5.023l-2.33 2.046h0a3.546 3.546 0 01-2.346.879m5.004-7.948a3.563 3.563 0 00-5.024-.327l5.024.327zm-5.004 7.948s0 0 0 0v-.05.05s0 0 0 0zm2.327-7.315h0a1.706 1.706 0 00-1.13.424h0l-2.331 2.044s0 0 0 0a1.715 1.715 0 002.26 2.578h.001l2.33-2.046-1.13-3zm0 0a1.713 1.713 0 011.13 3l-1.13-3z"/><path d="M17.894 39.785l-.038.034s0 0 0 0a3.571 3.571 0 01.306-5.053h0l3.893-3.418a3.56 3.56 0 015.024.327l.031.036h0l-4.23 8.434a3.532 3.532 0 01-2.343.884m-2.643-1.244a3.49 3.49 0 002.41 1.187m-2.41-1.187a3.52 3.52 0 01.3-4.981l-.3 4.981zm2.41 1.187l-.005.05h.001s0 0 0 0l.004-.05zm0 0c.078.007.155.007.233.007m0 0v.05m0-.05v.05h0m0-.05v.05m2.733-8.297a1.71 1.71 0 011.069-.423h.058l.119.003a1.7 1.7 0 011.173.575h0l.025.03s0 0 0 0a1.714 1.714 0 01-.158 2.419h0l-3.893 3.418h0a1.694 1.694 0 01-1.242.424 1.74 1.74 0 01-1.045-3.028s0 0 0 0l3.894-3.418h0z"/><path d="M13.452 36.614h0l-.094-.112s0 0 0 0a3.56 3.56 0 01.328-5.022l4.514-3.962a3.56 3.56 0 015.023.326h0l.099.113-9.87 8.657zm0 0h0m0 0h0m0 0a3.54 3.54 0 002.445 1.205m-2.444-1.204l2.444 1.204m0 0c.08.007.16.007.236.007h0v-.05l-.236.043zm4.646-9.34h0c.038 0 .074.001.114.005h.001a1.7 1.7 0 011.176.578l.097.11h0a1.717 1.717 0 01-.158 2.42h0l-4.514 3.963a1.715 1.715 0 01-2.418-.156l-.1-.113h0a1.717 1.717 0 01.16-2.421h0l4.513-3.963h0a1.702 1.702 0 011.129-.423zm3.655 2.056a3.559 3.559 0 00-.876-2.578L18.48 36.94l4.514-3.963s0 0 0 0a3.559 3.559 0 001.204-2.443z"/><path d="M12.34 33.942a3.532 3.532 0 002.347-.884l2.826-2.48a3.56 3.56 0 00.327-5.024l-.03-.035h0a3.559 3.559 0 00-5.024-.327s0 0 0 0L9.96 27.673h0a3.582 3.582 0 002.38 6.27h0zm0 0v-.05.05h0zm1.665-7.366a1.7 1.7 0 011.123-.424v0l.075.002.045.001a1.701 1.701 0 011.175.579h0l.03.035h0a1.712 1.712 0 01-.157 2.42h0l-2.826 2.48s0 0 0 0a1.728 1.728 0 01-2.449-.191h0v-.001a1.714 1.714 0 01.157-2.42h0l2.826-2.48h0z"/><path d="M10.204 28.936h0a.918.918 0 00.526.185l.004.007h.028a.922.922 0 00.559-1.66s0 0 0 0l-2.981-2.27h0a.923.923 0 10-1.118 1.47s0 0 0 0l2.982 2.268zm40.729 1.152h0a.923.923 0 00.653-.272s0 0 0 0l4.895-4.896h.001a.923.923 0 00-1.304-1.305h-.001l-4.896 4.898a.922.922 0 00.652 1.575z"/><path d="M56.822 27.838h0l-10.654-17.33h0a.922.922 0 01.222-1.212s0 0 0 0l10.552-8.172a.923.923 0 011.464.523h0l5.189 22.64-6.773 3.551zm0 0a.923.923 0 00.787.44m-.787-.44l1.238.324m0 0h0a.917.917 0 01-.45.115m.45-.115l5.088-2.86-5.088 2.86zm-.45.115h-.001v-.05.05s0 0 0 0zm5.93-3.407a.924.924 0 00.055-.582l-.447 1.014a.923.923 0 00.393-.432zM56.93 3.466l4.713 20.56-3.714 2.088-9.755-15.867 8.757-6.78zM5.906 1.96h0a.923.923 0 011.464-.522s0 0 0 0l10.553 8.171a.922.922 0 01.222 1.213h0L7.49 28.152h0a.922.922 0 01-.787.435M5.906 1.96L1.164 25.614M5.906 1.96L.716 24.599s0 0 0 0M5.906 1.96L.716 24.599m5.987 3.988v-.05.05s0 0 0 0zm0 0a.924.924 0 01-.451-.118l-5.088-2.855m0 0a.922.922 0 01-.448-1.015m.448 1.015l-.448-1.015M16.138 10.56L6.383 26.43l-3.714-2.087L7.381 3.78l8.757 6.78z"/></g></svg>