<svg width="59" height="42" fill="none" xmlns="http://www.w3.org/2000/svg"><path d="M3.673.65h33.559a3.266 3.266 0 013.262 3.264V9.04h9.322a.934.934 0 01.81.47l7.458 13.05c.08.14.122.3.122.462v10.72a3.266 3.266 0 01-3.263 3.263h-2.41a5.592 5.592 0 01-11.027 0H16.178a5.592 5.592 0 01-11.027 0H3.673a3.266 3.266 0 01-3.262-3.263V3.913A3.266 3.266 0 013.673.652zm47.2 13.051h-6.65v8.39h11.444l-4.794-8.39zm5.469 13.05h-1.865a.933.933 0 000 1.865h1.865v-1.864zM47.02 39.803a3.729 3.729 0 100-7.457 3.729 3.729 0 000 7.457zm-6.526-4.66h1.012a5.592 5.592 0 0111.027 0h2.41a1.4 1.4 0 001.399-1.399v-3.262h-1.865a2.797 2.797 0 110-5.593h1.865v-.933H43.29a.932.932 0 01-.932-.932V12.77a.932.932 0 01.932-.932h6.517l-.532-.932h-8.782v24.237zm-29.83 4.66a3.729 3.729 0 100-7.457 3.729 3.729 0 000 7.457zm-8.389-6.059a1.4 1.4 0 001.398 1.398h1.478a5.592 5.592 0 0111.027 0H38.63v-6.525H2.275v5.127zm0-6.991H38.63V3.914a1.4 1.4 0 00-1.398-1.399H3.673a1.4 1.4 0 00-1.398 1.399v22.838z" fill="#3284FF" opacity=".9"/></svg>