<svg width="50" height="49" fill="none" xmlns="http://www.w3.org/2000/svg"><g opacity=".9" fill="#3284FF"><path d="M48.978.078H32.261a4.139 4.139 0 00-2.907 1.202l-5.373 5.373H2.952A2.466 2.466 0 00.487 9.119V27.2a2.466 2.466 0 002.465 2.466h36.164A2.466 2.466 0 0041.58 27.2v-8.219h2.466a4.116 4.116 0 004.027-3.287h.904a.822.822 0 00.822-.822V.9a.822.822 0 00-.822-.822zM39.938 27.2a.822.822 0 01-.822.822H2.952a.822.822 0 01-.822-.822V9.12c0-.454.368-.822.822-.822h29.589v.909l-3.26 3.26a1.618 1.618 0 00-.474 1.083c0 .027-.009.054-.009.082-.001.437.172.857.482 1.165l.575.575a4.101 4.101 0 005.811 0l3.79-3.787h.482V27.2zm8.219-13.15h-.822a.822.822 0 00-.822.822 2.466 2.466 0 01-2.466 2.465h-2.465v-5.753a4.114 4.114 0 004.109-4.11h-1.644a2.466 2.466 0 01-2.465 2.466h-2.466a.822.822 0 00-.581.241l-4.028 4.027c-.35.353-.799.592-1.287.684a2.51 2.51 0 01-2.202-.684l-.576-.58 3.5-3.501a.823.823 0 00.242-.581V7.475a.822.822 0 00-.822-.822h-7.056l4.21-4.21a2.487 2.487 0 011.745-.722h15.896V14.05z"/><path d="M21.034 11.585a6.575 6.575 0 106.575 6.575 6.583 6.583 0 00-6.575-6.575zm0 11.506a4.932 4.932 0 110-9.863 4.932 4.932 0 010 9.863zM6.997 10.598a3.287 3.287 0 01-2.565 2.564.822.822 0 00-.658.806v8.383c0 .39.275.727.658.806a3.287 3.287 0 012.565 2.564.822.822 0 00.804.657h3.37v-1.643H8.425a4.92 4.92 0 00-3.007-3.007V14.59a4.92 4.92 0 003.007-3.007h2.746V9.94h-3.37a.822.822 0 00-.804.658zm29.653 11.13a4.92 4.92 0 00-3.007 3.006h-2.746v1.644h3.37c.39 0 .726-.275.804-.657a3.287 3.287 0 012.566-2.564.822.822 0 00.657-.806v-5.014H36.65v4.39zm2.584 12.229a4.058 4.058 0 00-3.136.142l-10.65 4.958a4.11 4.11 0 00-3.592-6.103H9.527a5.742 5.742 0 00-5.195 3.287H1.308a.822.822 0 00-.821.822v10.685c0 .454.368.822.821.822h22.284a4.157 4.157 0 001.738-.385l14.242-6.638a4.128 4.128 0 001.982-5.463 4.076 4.076 0 00-2.32-2.127zm-.359 6.101l-14.24 6.637c-.326.152-.682.23-1.043.23H2.13v-9.04h2.754c.35 0 .66-.221.776-.551a4.09 4.09 0 013.867-2.737h12.329a2.466 2.466 0 010 4.932h-7.397v1.644h9.431a4.146 4.146 0 001.734-.384l11.17-5.201a2.455 2.455 0 013.497 2.231 2.48 2.48 0 01-1.416 2.24z"/></g></svg>