<svg width="18" height="22" fill="none" xmlns="http://www.w3.org/2000/svg"><path d="M14.766 11.15c-.031-1.72.75-3.047 2.344-3.985-.875-1.25-2.204-1.953-3.985-2.11-.469-.03-1 .032-1.594.188-.343.094-.812.25-1.406.469-.594.219-.984.328-1.172.328-.187 0-.61-.125-1.265-.375-1.032-.375-1.797-.562-2.297-.562a5.755 5.755 0 00-2.625.75C1.953 6.32 1.297 7.009.797 7.915.266 8.884 0 10.04 0 11.384c0 1.218.219 2.484.656 3.797.25.687.61 1.453 1.079 2.296.593 1.032 1.187 1.844 1.78 2.438.782.781 1.516 1.156 2.204 1.125.344 0 .844-.125 1.5-.375.812-.313 1.484-.469 2.016-.469.53 0 1.171.14 1.921.422.688.281 1.25.422 1.688.422 1-.031 2.016-.75 3.047-2.156a12.191 12.191 0 001.734-3.422c-1.25-.594-2.094-1.469-2.531-2.625a3.619 3.619 0 01-.328-1.688zm-2.672-7.735c.844-1 1.219-2.125 1.125-3.375-.563.031-1.14.203-1.734.516-.594.312-1.079.687-1.454 1.125-.906 1-1.296 2.125-1.171 3.375 1.156.093 2.234-.438 3.234-1.594v-.047z" fill="#fff"/></svg>