<svg width="14" height="12" fill="none" xmlns="http://www.w3.org/2000/svg"><path d="M12.55 3.446c.019.073.028.192.028.356 0 1.312-.319 2.58-.957 3.8-.656 1.295-1.577 2.325-2.762 3.09-1.294.857-2.78 1.285-4.457 1.285A7.966 7.966 0 010 10.692c.2.019.428.028.684.028 1.33 0 2.524-.41 3.582-1.23a2.773 2.773 0 01-1.696-.548 2.966 2.966 0 01-.984-1.421c.182.018.355.027.52.027.255 0 .51-.027.765-.082a2.893 2.893 0 01-1.64-1.012A2.753 2.753 0 01.573 4.65v-.054c.401.237.83.364 1.285.383a3.185 3.185 0 01-.93-1.04 2.732 2.732 0 01-.355-1.367c0-.51.137-.993.41-1.449A7.96 7.96 0 006.891 4.13a3.986 3.986 0 01-.055-.656c0-.51.128-.985.383-1.422A2.782 2.782 0 018.258.985 2.773 2.773 0 019.68.603c.419 0 .802.082 1.148.246.365.164.684.382.957.656A5.842 5.842 0 0013.617.82a2.85 2.85 0 01-1.258 1.586A6.169 6.169 0 0014 1.942a6.31 6.31 0 01-1.45 1.504z" fill="#BDD3DF"/></svg>