<svg width="151" height="135" fill="none" xmlns="http://www.w3.org/2000/svg"><g opacity=".2" fill="#3284FF"><circle opacity=".3" cx="62.975" cy="63.571" r="62.704"/><path d="M49.915 38.124h0L36.438 63.955l-.266-.139.266.14a1.946 1.946 0 00.061 1.909l13.416-27.741zm0 0c.336-.643 1-1.046 1.726-1.046h83.558c.725 0 1.39.403 1.725 1.046m-87.009 0l-.266-.139a2.246 2.246 0 011.992-1.207h83.558c.837 0 1.604.465 1.991 1.207M42.977 133.83c.418.417.998.658 1.588.658h97.709a2.26 2.26 0 001.588-.658c.418-.418.658-.995.658-1.588v-12.354a2.25 2.25 0 00-2.246-2.246 2.249 2.249 0 00-2.246 2.242m-97.05 13.946l97.05-3.834v-10.112m-97.05 13.946l.212-.212s0 0 0 0m-.213.212l.212-.212m96.839-13.734h.3m-.3 0h.3v0m0 0a1.949 1.949 0 011.946-1.942 1.95 1.95 0 011.946 1.946v12.354c0 .513-.208 1.014-.57 1.376h0c-.361.361-.865.57-1.376.57H44.565a1.966 1.966 0 01-1.376-.57m97.139-13.734v10.412H46.512V66.802h93.816v45.78a1.95 1.95 0 001.946 1.946 1.95 1.95 0 001.946-1.946v-45.78h4.456a1.947 1.947 0 001.725-2.847l-13.477-25.831m-93.735 95.493l107.478-69.8-13.477-25.832m-94 95.632a1.96 1.96 0 01-.57-1.376v-65.44h-4.457a1.95 1.95 0 01-1.665-.936l6.69 67.752zm93.734-95.493l.266-.139m-.266.139h0l.266-.139M41.603 62.471l-.229.438h104.091l-.229-.438-11.133-21.34-.084-.16H52.821l-.084.16-11.134 21.34z" stroke="#F2F2F2" stroke-width=".6"/><path d="M95.316 116.517a1.896 1.896 0 11-3.793.001 1.896 1.896 0 013.793-.001zM93.42 78.682c1.046 0 1.896.852 1.896 1.897v25.831c0 1.044-.85 1.896-1.896 1.896a1.9 1.9 0 01-1.896-1.896V80.579a1.9 1.9 0 011.896-1.897zm-35.378-.699h-.35v8.211a1.896 1.896 0 01-3.792 0V76.086c0-1.047.849-1.896 1.896-1.896h10.108a1.896 1.896 0 010 3.793h-7.862zm71.105.349v-.35h-8.211a1.897 1.897 0 110-3.792h10.107c1.047 0 1.897.85 1.897 1.896v10.108a1.897 1.897 0 01-3.793 0v-7.862zm-.35 40.782h.35v-8.212a1.896 1.896 0 013.793 0v10.108c0 1.047-.85 1.896-1.897 1.896h-10.107a1.896 1.896 0 110-3.792h7.861zm-71.105-.35v.35h8.212a1.896 1.896 0 010 3.792H55.796a1.896 1.896 0 01-1.896-1.896v-10.108a1.896 1.896 0 013.792 0v7.862z" stroke="#F2F2F2" stroke-width=".7"/></g></svg>