<svg width="169" height="130" fill="none" xmlns="http://www.w3.org/2000/svg"><circle opacity=".08" cx="62.746" cy="62.958" r="62.5" fill="#3284FF"/><g opacity=".3" fill="#3284FF"><path d="M163.405 84.544l-13.416-12.455a15.541 15.541 0 00-10.555-4.174h-7.281v-1.658a10.932 10.932 0 00-10.917-10.98h-19.844V44.414a1.94 1.94 0 00-1.101-1.712L77.072 31.306a1.927 1.927 0 00-1.688 0L52.163 42.67a1.922 1.922 0 00-1.085 1.713v21.076c0 6.06 3.753 13.203 8.761 16.618l.777.548v34.46c0 1.053.928 1.86 1.981 1.86h7.39a11.717 11.717 0 0011.054 10.061c.182.008.363.024.543.024a11.638 11.638 0 007.88-3.08c2-1.841 3.305-4.315 3.695-7.005h42.894a11.702 11.702 0 0023.169 0h7.244a1.888 1.888 0 001.932-1.86V95.94a15.585 15.585 0 00-4.993-11.396zm-2.604 2.784c.223.192.432.399.629.617h-14.319a.383.383 0 01-.412-.33V74.382c.232.167.455.348.667.542l13.435 12.404zM54.893 65.458V45.573l21.342-10.43 21.342 10.46V65.46c0 4.749-3.229 10.79-7.156 13.466l-14.19 9.669-14.197-9.668c-3.926-2.677-7.14-8.718-7.14-13.467zM75.101 92.48a1.97 1.97 0 001.093.332c.386 0 .765-.116 1.085-.332l15.287-10.4c5.01-3.417 8.826-10.56 8.826-16.621v-6.367h19.844a7.112 7.112 0 017.102 7.165v26.696H64.431v-7.725l10.67 7.251zm14.352 25.218a7.887 7.887 0 01-6.694 7.44 7.887 7.887 0 01-5.267-14.548 7.888 7.888 0 019.905 1.43 7.84 7.84 0 012.055 5.678zm-7.35-12.05a11.616 11.616 0 00-8.423 3.026 11.894 11.894 0 00-3.61 6.456h-5.64V96.77h63.907v18.36H93.076a11.454 11.454 0 00-2.862-5.706 11.6 11.6 0 00-8.112-3.776zm65.535 19.58a7.889 7.889 0 117.888-7.888 7.897 7.897 0 01-7.888 7.888zm16.945-10.098h-5.446a11.7 11.7 0 00-22.999 0h-3.985V71.731h7.28c1.177.014 2.343.223 3.45.62v15.265a4.2 4.2 0 004.228 4.145h16.685a12.41 12.41 0 01.787 4.18v19.188z"/><path d="M71.959 69.215c.353.373.838.591 1.35.608h.005a1.951 1.951 0 001.349-.6l11.739-11.761a1.915 1.915 0 00-2.698-2.715L73.32 65.13l-4.592-4.64a1.908 1.908 0 00-2.697-.013 1.933 1.933 0 00-.013 2.719l5.94 6.02z"/></g></svg>